<svg width="256" height="80" viewBox="0 0 256 80" fill="none" xmlns="http://www.w3.org/2000/svg">
<path d="M24.9196 4.85885C26.2231 4.85885 27.2798 3.77116 27.2798 2.42942C27.2798 1.08769 26.2231 0 24.9196 0C23.6162 0 22.5595 1.08769 22.5595 2.42942C22.5595 3.77116 23.6162 4.85885 24.9196 4.85885Z" fill="url(#paint0_linear_4297_571)"/>
<path d="M22.1592 80C23.4627 80 24.5194 78.9123 24.5194 77.5706C24.5194 76.2288 23.4627 75.1412 22.1592 75.1412C20.8557 75.1412 19.799 76.2288 19.799 77.5706C19.799 78.9123 20.8557 80 22.1592 80Z" fill="url(#paint1_linear_4297_571)"/>
<path d="M24.9989 15.0158C26.584 15.0158 27.8689 13.6932 27.8689 12.0616C27.8689 10.4301 26.584 9.10743 24.9989 9.10743C23.4139 9.10743 22.129 10.4301 22.129 12.0616C22.129 13.6932 23.4139 15.0158 24.9989 15.0158Z" fill="url(#paint2_linear_4297_571)"/>
<path d="M24.7195 71.359C26.3045 71.359 27.5895 70.0364 27.5895 68.4048C27.5895 66.7733 26.3045 65.4507 24.7195 65.4507C23.1345 65.4507 21.8495 66.7733 21.8495 68.4048C21.8495 70.0364 23.1345 71.359 24.7195 71.359Z" fill="url(#paint3_linear_4297_571)"/>
<path d="M21.419 24.3059C23.2147 24.3059 24.6704 22.8075 24.6704 20.9591C24.6704 19.1108 23.2147 17.6124 21.419 17.6124C19.6234 17.6124 18.1677 19.1108 18.1677 20.9591C18.1677 22.8075 19.6234 24.3059 21.419 24.3059Z" fill="url(#paint4_linear_4297_571)"/>
<path d="M29.7419 63.6043C31.5376 63.6043 32.9933 62.1059 32.9933 60.2575C32.9933 58.4092 31.5376 56.9107 29.7419 56.9107C27.9463 56.9107 26.4906 58.4092 26.4906 60.2575C26.4906 62.1059 27.9463 63.6043 29.7419 63.6043Z" fill="url(#paint5_linear_4297_571)"/>
<path d="M15.8641 32.1617C17.712 32.1617 19.2099 30.6198 19.2099 28.7178C19.2099 26.8157 17.712 25.2738 15.8641 25.2738C14.0163 25.2738 12.5184 26.8157 12.5184 28.7178C12.5184 30.6198 14.0163 32.1617 15.8641 32.1617Z" fill="url(#paint6_linear_4297_571)"/>
<path d="M35.6329 56.2188C37.4808 56.2188 38.9787 54.6769 38.9787 52.7749C38.9787 50.8729 37.4808 49.3309 35.6329 49.3309C33.7851 49.3309 32.2872 50.8729 32.2872 52.7749C32.2872 54.6769 33.7851 56.2188 35.6329 56.2188Z" fill="url(#paint7_linear_4297_571)"/>
<path d="M9.89007 39.485C11.6399 39.485 13.0584 38.0248 13.0584 36.2237C13.0584 34.4226 11.6399 32.9624 9.89007 32.9624C8.14026 32.9624 6.72177 34.4226 6.72177 36.2237C6.72177 38.0248 8.14026 39.485 9.89007 39.485Z" fill="url(#paint8_linear_4297_571)"/>
<path d="M41.1878 48.2192C42.9376 48.2192 44.3561 46.7591 44.3561 44.958C44.3561 43.1568 42.9376 41.6967 41.1878 41.6967C39.438 41.6967 38.0195 43.1568 38.0195 44.958C38.0195 46.7591 39.438 48.2192 41.1878 48.2192Z" fill="url(#paint9_linear_4297_571)"/>
<path d="M23.3185 43.5392H9.81454C8.70809 43.5392 7.62808 43.1077 6.86149 42.2837C6.29505 41.6773 5.48315 41.3158 4.58817 41.378C3.21361 41.4713 2.07318 42.5907 1.92212 44.0018C1.72953 45.7937 3.08522 47.3097 4.78832 47.3097C5.59644 47.3097 6.32148 46.9676 6.84639 46.4195C7.62808 45.5993 8.70432 45.1446 9.81832 45.1446H23.3223C23.7528 45.1446 24.104 44.7831 24.104 44.3399C24.104 43.8968 23.7528 43.5353 23.3223 43.5353L23.3185 43.5392Z" fill="url(#paint10_linear_4297_571)"/>
<path d="M17.6956 52.7088H6.5254C5.58511 52.7088 4.65615 52.3784 3.96887 51.7176C3.54592 51.3133 2.98326 51.0646 2.36395 51.0646C1.05736 51.0646 0 52.1607 0 53.5134C0 54.8661 1.05736 55.9623 2.36395 55.9623C2.98326 55.9623 3.54592 55.7135 3.96887 55.3093C4.65615 54.6485 5.58511 54.3181 6.5254 54.3181H17.6956C18.1261 54.3181 18.4773 53.9566 18.4773 53.5134C18.4773 53.0703 18.1261 52.7088 17.6956 52.7088Z" fill="url(#paint11_linear_4297_571)"/>
<path d="M26.1545 36.9039H39.6584C40.7649 36.9039 41.8449 37.3354 42.6115 38.1595C43.1779 38.7659 43.9898 39.1274 44.8848 39.0652C46.2594 38.9719 47.3998 37.8524 47.5509 36.4414C47.7434 34.6494 46.3878 33.1335 44.6847 33.1335C43.8765 33.1335 43.1515 33.4755 42.6266 34.0236C41.8449 34.8438 40.7687 35.2986 39.6547 35.2986H26.1507C25.7202 35.2986 25.369 35.6601 25.369 36.1032C25.369 36.5463 25.7202 36.9078 26.1507 36.9078L26.1545 36.9039Z" fill="url(#paint12_linear_4297_571)"/>
<path d="M29.6136 27.2445H40.7838C41.7241 27.2445 42.653 27.5749 43.3403 28.2358C43.7633 28.64 44.3259 28.8888 44.9452 28.8888C46.2518 28.8888 47.3092 27.7926 47.3092 26.4399C47.3092 25.0872 46.2518 23.9911 44.9452 23.9911C44.3259 23.9911 43.7633 24.2398 43.3403 24.6441C42.653 25.3049 41.7241 25.6353 40.7838 25.6353H29.6136C29.1831 25.6353 28.8319 25.9968 28.8319 26.4399C28.8319 26.883 29.1831 27.2445 29.6136 27.2445Z" fill="url(#paint13_linear_4297_571)"/>
<path d="M59.2759 25.3418C60.0689 23.9152 61.1564 22.7996 62.546 22.0028C63.9318 21.2059 65.48 20.8055 67.183 20.8055C69.1918 20.8055 70.9363 21.3109 72.4203 22.3176C73.9005 23.3244 74.9238 24.7393 75.4865 26.5623H71.3744C70.9666 25.7927 70.4039 25.2057 69.6902 24.8015C68.9766 24.3972 68.1421 24.199 67.1867 24.199C66.1294 24.199 65.193 24.4439 64.3774 24.9336C63.5617 25.4234 62.9198 26.127 62.4629 27.0365C62.0022 27.95 61.7719 28.9995 61.7719 30.1928C61.7719 31.3862 62.006 32.4901 62.4742 33.3997C62.9425 34.3132 63.5919 35.0128 64.4264 35.5026C65.261 35.9924 66.2314 36.2373 67.3378 36.2373C68.7009 36.2373 69.8186 35.8602 70.6947 35.1061C71.5707 34.352 72.1371 33.3103 72.3939 31.977H66.2654V29.19H75.9207V32.3968C75.6828 33.6757 75.1731 34.8612 74.3876 35.9457C73.606 37.0341 72.594 37.9048 71.3593 38.5617C70.1245 39.2186 68.7425 39.5491 67.2094 39.5491C65.4913 39.5491 63.9356 39.1487 62.5498 38.3518C61.1602 37.555 60.0727 36.4472 59.2797 35.0245C58.4867 33.6057 58.0903 31.9926 58.0903 30.1851C58.0903 28.3776 58.4867 26.7644 59.2797 25.334L59.2759 25.3418Z" fill="#397F4B"/>
<path d="M92.8714 39.3936L88.9367 32.2413H87.2526V39.3936H83.6767V21.0427H90.3678C91.7461 21.0427 92.9204 21.2914 93.8909 21.7929C94.8613 22.2943 95.5901 22.9668 96.0734 23.818C96.5568 24.6693 96.8022 25.6178 96.8022 26.6712C96.8022 27.88 96.4624 28.9723 95.7789 29.9441C95.0992 30.9158 94.0835 31.5883 92.7392 31.9576L97.0061 39.3975H92.8676L92.8714 39.3936ZM87.2526 29.5087H90.2395C91.2099 29.5087 91.9349 29.2638 92.4107 28.7741C92.8865 28.2843 93.1243 27.6079 93.1243 26.7489C93.1243 25.8898 92.8865 25.2213 92.4107 24.7354C91.9349 24.2534 91.2099 24.0124 90.2395 24.0124H87.2526V29.5087Z" fill="#397F4B"/>
<path d="M108.836 38.3674C107.439 37.5628 106.333 36.4433 105.517 35.0167C104.702 33.5902 104.29 31.9731 104.29 30.1656C104.29 28.3581 104.698 26.7683 105.517 25.3418C106.333 23.9152 107.443 22.7957 108.836 21.9911C110.234 21.1865 111.763 20.7822 113.432 20.7822C115.101 20.7822 116.653 21.1865 118.042 21.9911C119.428 22.7957 120.527 23.9152 121.339 25.3418C122.147 26.7722 122.551 28.3776 122.551 30.1656C122.551 31.9537 122.147 33.5863 121.339 35.0167C120.531 36.4472 119.428 37.5628 118.031 38.3674C116.634 39.1759 115.101 39.5763 113.436 39.5763C111.77 39.5763 110.234 39.172 108.84 38.3674H108.836ZM116.268 35.4365C117.083 34.9351 117.725 34.2354 118.182 33.3336C118.643 32.4318 118.873 31.3745 118.873 30.1656C118.873 28.9568 118.643 27.8995 118.182 26.9977C117.721 26.0959 117.083 25.4001 116.268 24.9064C115.452 24.4166 114.504 24.1718 113.432 24.1718C112.359 24.1718 111.408 24.4166 110.585 24.9064C109.758 25.3962 109.116 26.0959 108.655 26.9977C108.195 27.8995 107.964 28.9568 107.964 30.1656C107.964 31.3745 108.195 32.4318 108.655 33.3336C109.116 34.2354 109.758 34.939 110.585 35.4365C111.412 35.938 112.359 36.1867 113.432 36.1867C114.504 36.1867 115.448 35.938 116.268 35.4365Z" fill="#397F4B"/>
<path d="M149.75 21.0427V39.3936H146.174V27.4563L141.397 39.3936H138.69L133.887 27.4563V39.3936H130.311V21.0427H134.374L140.042 34.6863L145.713 21.0427H149.75Z" fill="#262B31"/>
<path d="M162.063 38.3674C160.666 37.5628 159.56 36.4433 158.744 35.0167C157.929 33.5902 157.517 31.9731 157.517 30.1656C157.517 28.3581 157.925 26.7683 158.744 25.3418C159.56 23.9152 160.67 22.7957 162.063 21.9911C163.461 21.1865 164.99 20.7822 166.659 20.7822C168.328 20.7822 169.88 21.1865 171.269 21.9911C172.655 22.7957 173.754 23.9152 174.566 25.3418C175.374 26.7722 175.778 28.3776 175.778 30.1656C175.778 31.9537 175.374 33.5863 174.566 35.0167C173.758 36.4472 172.655 37.5628 171.258 38.3674C169.861 39.1759 168.328 39.5763 166.659 39.5763C164.99 39.5763 163.457 39.172 162.063 38.3674ZM169.495 35.4365C170.31 34.9351 170.952 34.2354 171.409 33.3336C171.87 32.4318 172.1 31.3745 172.1 30.1656C172.1 28.9568 171.87 27.8995 171.409 26.9977C170.948 26.0959 170.31 25.4001 169.495 24.9064C168.679 24.4166 167.731 24.1718 166.659 24.1718C165.587 24.1718 164.639 24.4166 163.812 24.9064C162.985 25.3962 162.343 26.0959 161.882 26.9977C161.422 27.8995 161.191 28.9568 161.191 30.1656C161.191 31.3745 161.422 32.4318 161.882 33.3336C162.343 34.2354 162.985 34.939 163.812 35.4365C164.639 35.9341 165.587 36.1867 166.659 36.1867C167.731 36.1867 168.675 35.938 169.495 35.4365Z" fill="#262B31"/>
<path d="M195.674 21.0427V23.9346H190.924V39.3936H187.348V23.9346H182.598V21.0427H195.674Z" fill="#262B31"/>
<path d="M206.961 21.0427V39.3936H203.385V21.0427H206.961Z" fill="#262B31"/>
<path d="M219.274 38.3674C217.877 37.5628 216.771 36.4433 215.955 35.0167C215.14 33.5902 214.728 31.9731 214.728 30.1656C214.728 28.3581 215.136 26.7683 215.955 25.3418C216.771 23.9152 217.881 22.7957 219.274 21.9911C220.671 21.1865 222.201 20.7822 223.87 20.7822C225.539 20.7822 227.091 21.1865 228.48 21.9911C229.866 22.7957 230.965 23.9152 231.777 25.3418C232.585 26.7722 232.989 28.3776 232.989 30.1656C232.989 31.9537 232.585 33.5863 231.777 35.0167C230.969 36.4472 229.866 37.5628 228.469 38.3674C227.072 39.1759 225.539 39.5763 223.87 39.5763C222.201 39.5763 220.668 39.172 219.274 38.3674ZM226.706 35.4365C227.521 34.9351 228.163 34.2354 228.62 33.3336C229.081 32.4318 229.311 31.3745 229.311 30.1656C229.311 28.9568 229.081 27.8995 228.62 26.9977C228.159 26.0959 227.521 25.4001 226.706 24.9064C225.89 24.4166 224.942 24.1718 223.87 24.1718C222.797 24.1718 221.85 24.4166 221.023 24.9064C220.196 25.3962 219.554 26.0959 219.093 26.9977C218.632 27.8995 218.402 28.9568 218.402 30.1656C218.402 31.3745 218.632 32.4318 219.093 33.3336C219.554 34.2354 220.196 34.939 221.023 35.4365C221.85 35.9341 222.797 36.1867 223.87 36.1867C224.942 36.1867 225.886 35.938 226.706 35.4365Z" fill="#262B31"/>
<path d="M256 39.3936H252.424L244.328 26.7994V39.3936H240.752V21.0155H244.328L252.424 33.6368V21.0155H256V39.3936Z" fill="#262B31"/>
<path d="M61.4018 57.3096L59.9027 54.6625H58.9096V57.3096H58.0902V50.8377H60.1218C60.5975 50.8377 60.9978 50.9193 61.3263 51.0864C61.6548 51.2536 61.9003 51.479 62.0626 51.7628C62.225 52.0465 62.3081 52.373 62.3081 52.7384C62.3081 53.1854 62.1835 53.578 61.9342 53.9162C61.685 54.2583 61.3112 54.4837 60.8128 54.5926L62.3912 57.3058H61.4094L61.4018 57.3096ZM60.1218 53.9862C60.5673 53.9862 60.8996 53.8735 61.1224 53.648C61.3452 53.4226 61.4547 53.1194 61.4547 52.7423C61.4547 52.3653 61.3452 52.0504 61.13 51.8327C60.9147 51.6151 60.5749 51.5062 60.118 51.5062H58.9096V53.9862H60.1218Z" fill="#ADADAB"/>
<path d="M70.7211 55.0551H66.7714C66.794 55.5566 66.9602 55.953 67.2622 56.2446C67.5643 56.5361 67.9382 56.6799 68.3762 56.6799C68.7311 56.6799 69.0257 56.5944 69.2635 56.4234C69.5014 56.2524 69.6676 56.0269 69.7658 55.7393H70.6494C70.5172 56.229 70.2529 56.6255 69.8564 56.9326C69.4599 57.2397 68.9652 57.3913 68.3762 57.3913C67.9079 57.3913 67.4888 57.2824 67.1188 57.0648C66.7487 56.8471 66.4579 56.54 66.2465 56.1396C66.035 55.7393 65.9293 55.2767 65.9293 54.7519C65.9293 54.2272 66.0313 53.7646 66.2352 53.3681C66.4391 52.9717 66.726 52.6685 67.0961 52.4547C67.4662 52.2409 67.8928 52.1359 68.3724 52.1359C68.852 52.1359 69.256 52.2409 69.6109 52.4508C69.9697 52.6607 70.2453 52.9483 70.4455 53.3137C70.6456 53.6791 70.7438 54.0911 70.7438 54.5498C70.7438 54.7053 70.7362 54.8724 70.7173 55.0513L70.7211 55.0551ZM69.694 53.5819C69.5543 53.3448 69.3693 53.1621 69.1314 53.0377C68.8935 52.9134 68.6292 52.8512 68.3422 52.8512C67.9193 52.8512 67.5643 52.9911 67.2698 53.2749C66.9753 53.5547 66.8129 53.9434 66.7827 54.441H69.9055C69.9055 54.1067 69.8375 53.819 69.6978 53.5819H69.694Z" fill="#ADADAB"/>
<path d="M76.3323 56.5128L77.8654 52.2215H78.749L76.8081 57.3096H75.8414L73.9005 52.2215H74.7841L76.3285 56.5128H76.3323Z" fill="#ADADAB"/>
<path d="M82.2154 53.3798C82.4193 52.9872 82.7025 52.6801 83.0574 52.4663C83.4161 52.2487 83.8126 52.1398 84.2544 52.1398C84.6962 52.1398 85.0625 52.237 85.3835 52.4275C85.7044 52.6179 85.9385 52.8628 86.0971 53.1505V52.2215H86.9279V57.3096H86.0971V56.3612C85.9348 56.6605 85.6931 56.9054 85.3721 57.0997C85.0512 57.2941 84.6773 57.3913 84.2506 57.3913C83.824 57.3913 83.4161 57.2785 83.0612 57.057C82.7062 56.8354 82.4268 56.5206 82.2229 56.1202C82.019 55.7159 81.9171 55.2611 81.9171 54.7442C81.9171 54.2272 82.019 53.7685 82.2229 53.3759L82.2154 53.3798ZM85.8706 53.7569C85.7195 53.4731 85.5156 53.2554 85.2626 53.1038C85.0058 52.9522 84.7264 52.8745 84.4206 52.8745C84.1147 52.8745 83.8353 52.9483 83.5823 53.096C83.3293 53.2438 83.1292 53.4614 82.9781 53.7452C82.8271 54.0289 82.7516 54.3632 82.7516 54.7481C82.7516 55.1329 82.8271 55.4788 82.9781 55.7665C83.1292 56.0541 83.3293 56.2757 83.5823 56.4273C83.8353 56.5789 84.1147 56.6566 84.4206 56.6566C84.7264 56.6566 85.0096 56.5828 85.2626 56.4273C85.5194 56.2757 85.7195 56.0541 85.8706 55.7665C86.0216 55.4788 86.0971 55.1445 86.0971 54.7597C86.0971 54.3749 86.0216 54.0406 85.8706 53.7569Z" fill="#ADADAB"/>
<path d="M91.7946 50.4373V57.3096H90.9758V50.4373H91.7946Z" fill="#ADADAB"/>
<path d="M95.8809 51.2264C95.7713 51.1136 95.7185 50.9776 95.7185 50.8182C95.7185 50.6588 95.7713 50.5228 95.8809 50.4101C95.9904 50.2973 96.1225 50.2429 96.2773 50.2429C96.4321 50.2429 96.5568 50.2973 96.6625 50.4101C96.7682 50.5228 96.8211 50.6588 96.8211 50.8182C96.8211 50.9776 96.7682 51.1175 96.6625 51.2264C96.5568 51.3391 96.4284 51.3935 96.2773 51.3935C96.1263 51.3935 95.9904 51.3391 95.8809 51.2264ZM96.6738 52.2215V57.3096H95.8544V52.2215H96.6738Z" fill="#ADADAB"/>
<path d="M100.733 53.3798C100.937 52.9872 101.22 52.6801 101.575 52.4663C101.934 52.2487 102.334 52.1398 102.78 52.1398C103.165 52.1398 103.524 52.2331 103.852 52.4119C104.184 52.5946 104.434 52.8356 104.611 53.131V50.4373H105.442V57.3096H104.611V56.3534C104.449 56.6566 104.207 56.9054 103.89 57.0997C103.573 57.2941 103.199 57.3913 102.772 57.3913C102.345 57.3913 101.934 57.2785 101.575 57.057C101.216 56.8354 100.937 56.5206 100.733 56.1202C100.529 55.7159 100.427 55.2611 100.427 54.7442C100.427 54.2272 100.529 53.7685 100.733 53.3759V53.3798ZM104.388 53.7569C104.237 53.4731 104.033 53.2554 103.78 53.1038C103.524 52.9522 103.244 52.8745 102.938 52.8745C102.632 52.8745 102.353 52.9483 102.1 53.096C101.847 53.2438 101.647 53.4614 101.496 53.7452C101.345 54.0289 101.269 54.3632 101.269 54.7481C101.269 55.1329 101.345 55.4788 101.496 55.7665C101.647 56.0541 101.847 56.2757 102.1 56.4273C102.353 56.5789 102.632 56.6566 102.938 56.6566C103.244 56.6566 103.527 56.5828 103.78 56.4273C104.037 56.2757 104.237 56.0541 104.388 55.7665C104.539 55.4788 104.615 55.1445 104.615 54.7597C104.615 54.3749 104.539 54.0406 104.388 53.7569Z" fill="#ADADAB"/>
<path d="M109.493 53.3798C109.697 52.9872 109.981 52.6801 110.336 52.4663C110.694 52.2487 111.091 52.1398 111.533 52.1398C111.974 52.1398 112.341 52.237 112.662 52.4275C112.983 52.6179 113.217 52.8628 113.375 53.1505V52.2215H114.206V57.3096H113.375V56.3612C113.213 56.6605 112.971 56.9054 112.65 57.0997C112.329 57.2941 111.955 57.3913 111.529 57.3913C111.102 57.3913 110.694 57.2785 110.339 57.057C109.984 56.8354 109.705 56.5206 109.501 56.1202C109.297 55.7159 109.195 55.2611 109.195 54.7442C109.195 54.2272 109.297 53.7685 109.501 53.3759L109.493 53.3798ZM113.149 53.7569C112.998 53.4731 112.794 53.2554 112.541 53.1038C112.284 52.9522 112.005 52.8745 111.699 52.8745C111.393 52.8745 111.113 52.9483 110.86 53.096C110.607 53.2438 110.407 53.4614 110.256 53.7452C110.105 54.0289 110.03 54.3632 110.03 54.7481C110.03 55.1329 110.105 55.4788 110.256 55.7665C110.407 56.0541 110.607 56.2757 110.86 56.4273C111.113 56.5789 111.393 56.6566 111.699 56.6566C112.005 56.6566 112.288 56.5828 112.541 56.4273C112.797 56.2757 112.998 56.0541 113.149 55.7665C113.3 55.4788 113.375 55.1445 113.375 54.7597C113.375 54.3749 113.3 54.0406 113.149 53.7569Z" fill="#ADADAB"/>
<path d="M119.255 55.9181C119.255 56.1668 119.307 56.3418 119.409 56.4428C119.511 56.5439 119.689 56.5944 119.942 56.5944H120.546V57.3096H119.806C119.349 57.3096 119.005 57.2008 118.779 56.9831C118.548 56.7654 118.435 56.4117 118.435 55.9142V52.9134H117.793V52.2176H118.435V50.9348H119.255V52.2176H120.546V52.9134H119.255V55.9181Z" fill="#ADADAB"/>
<path d="M124.228 51.2264C124.118 51.1136 124.065 50.9776 124.065 50.8182C124.065 50.6588 124.118 50.5228 124.228 50.4101C124.337 50.2973 124.469 50.2429 124.624 50.2429C124.779 50.2429 124.903 50.2973 125.009 50.4101C125.115 50.5228 125.168 50.6588 125.168 50.8182C125.168 50.9776 125.115 51.1175 125.009 51.2264C124.903 51.3391 124.775 51.3935 124.624 51.3935C124.473 51.3935 124.337 51.3391 124.228 51.2264ZM125.021 52.2215V57.3096H124.201V52.2215H125.021Z" fill="#ADADAB"/>
<path d="M133.566 55.0551H129.612C129.635 55.5566 129.801 55.953 130.103 56.2446C130.405 56.5361 130.779 56.6799 131.217 56.6799C131.572 56.6799 131.867 56.5944 132.104 56.4234C132.342 56.2524 132.508 56.0269 132.607 55.7393H133.49C133.358 56.229 133.094 56.6255 132.697 56.9326C132.301 57.2397 131.806 57.3913 131.217 57.3913C130.749 57.3913 130.33 57.2824 129.96 57.0648C129.59 56.8471 129.299 56.54 129.087 56.1396C128.876 55.7393 128.77 55.2767 128.77 54.7519C128.77 54.2272 128.872 53.7646 129.076 53.3681C129.28 52.9717 129.567 52.6685 129.937 52.4547C130.307 52.2409 130.734 52.1359 131.213 52.1359C131.693 52.1359 132.097 52.2409 132.452 52.4508C132.807 52.6607 133.086 52.9483 133.286 53.3137C133.486 53.6791 133.585 54.0911 133.585 54.5498C133.585 54.7053 133.577 54.8724 133.558 55.0513L133.566 55.0551ZM132.539 53.5819C132.399 53.3448 132.214 53.1621 131.976 53.0377C131.738 52.9134 131.474 52.8512 131.187 52.8512C130.764 52.8512 130.409 52.9911 130.114 53.2749C129.82 53.5547 129.658 53.9434 129.627 54.441H132.75C132.75 54.1067 132.682 53.819 132.542 53.5819H132.539Z" fill="#ADADAB"/>
<path d="M147.167 55.0551H143.214C143.236 55.5566 143.402 55.953 143.704 56.2446C144.006 56.5361 144.38 56.6799 144.818 56.6799C145.173 56.6799 145.468 56.5944 145.706 56.4234C145.944 56.2524 146.11 56.0269 146.208 55.7393H147.091C146.959 56.229 146.695 56.6255 146.299 56.9326C145.902 57.2397 145.407 57.3913 144.818 57.3913C144.35 57.3913 143.931 57.2824 143.561 57.0648C143.191 56.8471 142.9 56.54 142.689 56.1396C142.477 55.7393 142.371 55.2767 142.371 54.7519C142.371 54.2272 142.473 53.7646 142.677 53.3681C142.881 52.9717 143.168 52.6685 143.538 52.4547C143.908 52.2409 144.335 52.1359 144.815 52.1359C145.294 52.1359 145.698 52.2409 146.053 52.4508C146.408 52.6607 146.687 52.9483 146.888 53.3137C147.088 53.6791 147.186 54.0911 147.186 54.5498C147.186 54.7053 147.178 54.8724 147.159 55.0513L147.167 55.0551ZM146.14 53.5819C146 53.3448 145.815 53.1621 145.577 53.0377C145.339 52.9134 145.075 52.8512 144.788 52.8512C144.365 52.8512 144.01 52.9911 143.716 53.2749C143.421 53.5547 143.259 53.9434 143.229 54.441H146.351C146.351 54.1067 146.283 53.819 146.144 53.5819H146.14Z" fill="#ADADAB"/>
<path d="M154.81 52.6918C155.184 53.0649 155.369 53.6053 155.369 54.3127V57.3135H154.557V54.4332C154.557 53.924 154.432 53.5392 154.187 53.2671C153.941 52.9989 153.601 52.8628 153.175 52.8628C152.748 52.8628 152.397 53.0028 152.14 53.2826C151.883 53.5625 151.759 53.9667 151.759 54.4993V57.3135H150.939V52.2253H151.759V52.9483C151.921 52.6879 152.14 52.4858 152.423 52.3458C152.706 52.2059 153.012 52.1321 153.348 52.1321C153.949 52.1321 154.436 52.3186 154.81 52.6918Z" fill="#ADADAB"/>
<path d="M165.979 56.952C165.5 56.6683 165.118 56.2757 164.839 55.7742C164.559 55.2689 164.42 54.7014 164.42 54.0717C164.42 53.442 164.559 52.8706 164.839 52.3692C165.118 51.8638 165.5 51.4712 165.979 51.1914C166.459 50.9115 166.991 50.7677 167.577 50.7677C168.162 50.7677 168.702 50.9076 169.181 51.1914C169.661 51.4751 170.042 51.8638 170.318 52.3653C170.594 52.8667 170.733 53.4381 170.733 54.0756C170.733 54.7131 170.594 55.2845 170.318 55.7859C170.042 56.2873 169.661 56.6799 169.181 56.9598C168.702 57.2436 168.166 57.3835 167.577 57.3835C166.987 57.3835 166.463 57.2436 165.979 56.9598V56.952ZM168.762 56.299C169.113 56.0891 169.389 55.7898 169.593 55.4089C169.797 55.0279 169.895 54.5809 169.895 54.0717C169.895 53.5625 169.793 53.1155 169.593 52.7307C169.393 52.3458 169.113 52.0465 168.762 51.8405C168.411 51.6345 168.015 51.5296 167.577 51.5296C167.138 51.5296 166.742 51.6345 166.391 51.8405C166.04 52.0465 165.76 52.3458 165.56 52.7307C165.36 53.1194 165.258 53.5664 165.258 54.0717C165.258 54.577 165.36 55.024 165.56 55.4089C165.76 55.7937 166.04 56.0891 166.391 56.299C166.742 56.5089 167.138 56.6139 167.577 56.6139C168.015 56.6139 168.411 56.5089 168.762 56.299Z" fill="#ADADAB"/>
<path d="M176.023 52.4314C176.344 52.237 176.718 52.1398 177.145 52.1398C177.572 52.1398 177.983 52.2487 178.342 52.4663C178.701 52.684 178.98 52.9872 179.184 53.3798C179.388 53.7724 179.49 54.2311 179.49 54.7481C179.49 55.265 179.388 55.7198 179.184 56.1241C178.98 56.5283 178.697 56.8393 178.342 57.0609C177.983 57.2824 177.587 57.3952 177.145 57.3952C176.703 57.3952 176.352 57.298 176.031 57.1036C175.71 56.9093 175.465 56.6644 175.295 56.3729V59.7235H174.475V52.2176H175.295V53.1544C175.457 52.8628 175.699 52.6218 176.02 52.4236L176.023 52.4314ZM178.429 53.7452C178.278 53.4614 178.074 53.2438 177.821 53.096C177.564 52.9483 177.285 52.8745 176.979 52.8745C176.673 52.8745 176.401 52.9522 176.144 53.1038C175.888 53.2554 175.684 53.477 175.529 53.7646C175.374 54.0523 175.299 54.3866 175.299 54.7636C175.299 55.1406 175.374 55.4827 175.529 55.7704C175.684 56.058 175.888 56.2796 176.144 56.4312C176.401 56.5828 176.677 56.6605 176.979 56.6605C177.281 56.6605 177.568 56.5866 177.821 56.4312C178.078 56.2796 178.278 56.058 178.429 55.7704C178.58 55.4827 178.655 55.1445 178.655 54.7519C178.655 54.3593 178.58 54.0328 178.429 53.7491V53.7452Z" fill="#ADADAB"/>
<path d="M184.236 55.9181C184.236 56.1668 184.289 56.3418 184.391 56.4428C184.493 56.5439 184.671 56.5944 184.924 56.5944H185.528V57.3096H184.788C184.331 57.3096 183.987 57.2008 183.761 56.9831C183.53 56.7654 183.417 56.4117 183.417 55.9142V52.9134H182.775V52.2176H183.417V50.9348H184.236V52.2176H185.528V52.9134H184.236V55.9181Z" fill="#ADADAB"/>
<path d="M189.209 51.2264C189.1 51.1136 189.047 50.9776 189.047 50.8182C189.047 50.6588 189.1 50.5228 189.209 50.4101C189.319 50.2973 189.451 50.2429 189.606 50.2429C189.761 50.2429 189.885 50.2973 189.991 50.4101C190.097 50.5228 190.15 50.6588 190.15 50.8182C190.15 50.9776 190.097 51.1175 189.991 51.2264C189.885 51.3391 189.757 51.3935 189.606 51.3935C189.455 51.3935 189.319 51.3391 189.209 51.2264ZM190.002 52.2215V57.3096H189.183V52.2215H190.002Z" fill="#ADADAB"/>
<path d="M201.036 52.3769C201.338 52.5402 201.576 52.7851 201.75 53.1155C201.923 53.442 202.01 53.8424 202.01 54.3127V57.3135H201.198V54.4332C201.198 53.924 201.078 53.5392 200.832 53.2671C200.587 52.9989 200.258 52.8628 199.843 52.8628C199.427 52.8628 199.076 53.0028 198.823 53.2865C198.57 53.5703 198.446 53.9745 198.446 54.5071V57.3135H197.634V54.4332C197.634 53.924 197.513 53.5392 197.267 53.2671C197.026 52.9989 196.694 52.8628 196.278 52.8628C195.863 52.8628 195.512 53.0028 195.259 53.2865C195.006 53.5703 194.881 53.9745 194.881 54.5071V57.3135H194.062V52.2253H194.881V52.96C195.043 52.6957 195.262 52.4897 195.534 52.3458C195.806 52.202 196.108 52.1321 196.441 52.1321C196.856 52.1321 197.222 52.2292 197.543 52.4197C197.86 52.6102 198.098 52.8939 198.257 53.2632C198.397 52.9056 198.623 52.6257 198.944 52.4275C199.261 52.2292 199.616 52.1321 200.009 52.1321C200.402 52.1321 200.738 52.2137 201.036 52.3769Z" fill="#ADADAB"/>
<path d="M206.017 53.3798C206.22 52.9872 206.504 52.6801 206.859 52.4663C207.217 52.2487 207.614 52.1398 208.056 52.1398C208.497 52.1398 208.864 52.237 209.185 52.4275C209.502 52.6179 209.74 52.8628 209.898 53.1505V52.2215H210.729V57.3096H209.898V56.3612C209.736 56.6605 209.494 56.9054 209.173 57.0997C208.852 57.2941 208.479 57.3913 208.052 57.3913C207.625 57.3913 207.217 57.2785 206.862 57.057C206.507 56.8354 206.228 56.5206 206.024 56.1202C205.82 55.7198 205.718 55.2611 205.718 54.7442C205.718 54.2272 205.82 53.7685 206.024 53.3759L206.017 53.3798ZM209.672 53.7569C209.521 53.4731 209.317 53.2554 209.064 53.1038C208.807 52.9522 208.528 52.8745 208.222 52.8745C207.916 52.8745 207.637 52.9483 207.384 53.096C207.131 53.2438 206.93 53.4614 206.779 53.7452C206.628 54.0289 206.553 54.3632 206.553 54.7481C206.553 55.1329 206.628 55.4788 206.779 55.7665C206.93 56.0541 207.131 56.2757 207.384 56.4273C207.637 56.5789 207.916 56.6566 208.222 56.6566C208.528 56.6566 208.811 56.5828 209.064 56.4273C209.321 56.2757 209.521 56.0541 209.672 55.7665C209.823 55.4788 209.898 55.1445 209.898 54.7597C209.898 54.3749 209.823 54.0406 209.672 53.7569Z" fill="#ADADAB"/>
<path d="M215.596 50.4373V57.3096H214.777V50.4373H215.596Z" fill="#ADADAB"/>
<path d="M219.682 51.2264C219.573 51.1136 219.52 50.9776 219.52 50.8182C219.52 50.6588 219.573 50.5228 219.682 50.4101C219.792 50.2973 219.924 50.2429 220.079 50.2429C220.233 50.2429 220.358 50.2973 220.464 50.4101C220.569 50.5228 220.622 50.6588 220.622 50.8182C220.622 50.9776 220.569 51.1175 220.464 51.2264C220.358 51.3391 220.23 51.3935 220.079 51.3935C219.928 51.3935 219.792 51.3391 219.682 51.2264ZM220.475 52.2215V57.3096H219.656V52.2215H220.475Z" fill="#ADADAB"/>
<path d="M225.263 57.193C224.965 57.0609 224.731 56.8743 224.553 56.6372C224.379 56.4001 224.281 56.1241 224.262 55.817H225.112C225.135 56.0852 225.252 56.299 225.459 56.4661C225.667 56.6333 225.939 56.7149 226.275 56.7149C226.592 56.7149 226.841 56.6411 227.019 56.4972C227.196 56.3534 227.283 56.163 227.283 55.9258C227.283 55.7043 227.189 55.5371 226.996 55.4283C226.804 55.3195 226.505 55.2145 226.101 55.1096C225.735 55.0124 225.437 54.9113 225.206 54.8141C224.976 54.717 224.784 54.5692 224.621 54.3749C224.459 54.1805 224.379 53.9201 224.379 53.6014C224.379 53.3332 224.451 53.0922 224.595 52.8667C224.738 52.6451 224.95 52.4663 225.222 52.3381C225.497 52.2098 225.814 52.1437 226.173 52.1437C226.721 52.1437 227.162 52.2875 227.498 52.5713C227.835 52.855 228.016 53.2476 228.038 53.7413H227.219C227.2 53.4614 227.098 53.2399 226.909 53.0727C226.721 52.9056 226.468 52.8201 226.147 52.8201C225.845 52.8201 225.61 52.89 225.437 53.0261C225.263 53.1621 225.18 53.3409 225.18 53.5664C225.18 53.7413 225.233 53.8812 225.342 53.9901C225.452 54.0989 225.584 54.1805 225.739 54.2388C225.894 54.2972 226.116 54.371 226.407 54.4565C226.77 54.5537 227.057 54.6548 227.272 54.7481C227.487 54.8452 227.676 54.9852 227.831 55.1717C227.986 55.3583 228.065 55.6071 228.065 55.9142C228.065 56.1979 227.989 56.4545 227.842 56.676C227.695 56.8976 227.487 57.0764 227.215 57.2047C226.943 57.333 226.63 57.399 226.268 57.399C225.89 57.399 225.55 57.333 225.252 57.2008L225.263 57.193Z" fill="#ADADAB"/>
<path d="M231.905 53.3798C232.109 52.9872 232.392 52.6801 232.747 52.4663C233.106 52.2487 233.502 52.1398 233.944 52.1398C234.386 52.1398 234.752 52.237 235.073 52.4275C235.39 52.6179 235.628 52.8628 235.787 53.1505V52.2215H236.618V57.3096H235.787V56.3612C235.625 56.6605 235.383 56.9054 235.062 57.0997C234.741 57.2941 234.367 57.3913 233.94 57.3913C233.514 57.3913 233.106 57.2785 232.751 57.057C232.396 56.8354 232.117 56.5206 231.913 56.1202C231.709 55.7198 231.607 55.2611 231.607 54.7442C231.607 54.2272 231.709 53.7685 231.913 53.3759L231.905 53.3798ZM235.56 53.7569C235.409 53.4731 235.205 53.2554 234.952 53.1038C234.696 52.9522 234.416 52.8745 234.11 52.8745C233.804 52.8745 233.525 52.9483 233.272 53.096C233.019 53.2438 232.819 53.4614 232.668 53.7452C232.517 54.0289 232.441 54.3632 232.441 54.7481C232.441 55.1329 232.517 55.4788 232.668 55.7665C232.819 56.0541 233.019 56.2757 233.272 56.4273C233.525 56.5789 233.804 56.6566 234.11 56.6566C234.416 56.6566 234.699 56.5828 234.952 56.4273C235.209 56.2757 235.409 56.0541 235.56 55.7665C235.711 55.4788 235.787 55.1445 235.787 54.7597C235.787 54.3749 235.711 54.0406 235.56 53.7569Z" fill="#ADADAB"/>
<path d="M241.67 55.9181C241.67 56.1668 241.723 56.3418 241.825 56.4428C241.927 56.5439 242.104 56.5944 242.357 56.5944H242.961V57.3096H242.221C241.764 57.3096 241.421 57.2008 241.194 56.9831C240.964 56.7654 240.851 56.4117 240.851 55.9142V52.9134H240.209V52.2176H240.851V50.9348H241.67V52.2176H242.961V52.9134H241.67V55.9181Z" fill="#ADADAB"/>
<path d="M246.639 51.2264C246.53 51.1136 246.477 50.9776 246.477 50.8182C246.477 50.6588 246.53 50.5228 246.639 50.4101C246.749 50.2973 246.881 50.2429 247.036 50.2429C247.19 50.2429 247.315 50.2973 247.421 50.4101C247.527 50.5228 247.579 50.6588 247.579 50.8182C247.579 50.9776 247.527 51.1175 247.421 51.2264C247.315 51.3391 247.187 51.3935 247.036 51.3935C246.885 51.3935 246.749 51.3391 246.639 51.2264ZM247.432 52.2215V57.3096H246.613V52.2215H247.432Z" fill="#ADADAB"/>
<path d="M255.977 55.0551H252.024C252.047 55.5566 252.213 55.953 252.515 56.2446C252.817 56.5361 253.191 56.6799 253.629 56.6799C253.984 56.6799 254.278 56.5944 254.516 56.4234C254.754 56.2524 254.92 56.0269 255.018 55.7393H255.902C255.77 56.229 255.505 56.6255 255.109 56.9326C254.712 57.2397 254.218 57.3913 253.629 57.3913C253.16 57.3913 252.741 57.2824 252.371 57.0648C252.001 56.8471 251.71 56.54 251.499 56.1396C251.288 55.7393 251.182 55.2767 251.182 54.7519C251.182 54.2272 251.284 53.7646 251.488 53.3681C251.692 52.9717 251.979 52.6685 252.349 52.4547C252.719 52.2409 253.145 52.1359 253.625 52.1359C254.104 52.1359 254.508 52.2409 254.863 52.4508C255.218 52.6607 255.498 52.9483 255.698 53.3137C255.898 53.6791 255.996 54.0911 255.996 54.5498C255.996 54.7053 255.989 54.8724 255.97 55.0513L255.977 55.0551ZM254.95 53.5819C254.811 53.3448 254.626 53.1621 254.388 53.0377C254.15 52.9134 253.885 52.8512 253.598 52.8512C253.176 52.8512 252.821 52.9911 252.526 53.2749C252.232 53.5547 252.069 53.9434 252.039 54.441H255.162C255.162 54.1067 255.094 53.819 254.954 53.5819H254.95Z" fill="#ADADAB"/>
<defs>
<linearGradient id="paint0_linear_4297_571" x1="128" y1="-21.632" x2="128" y2="1298.75" gradientUnits="userSpaceOnUse">
<stop stop-color="#028B47"/>
<stop offset="1" stop-color="#83C65C"/>
</linearGradient>
<linearGradient id="paint1_linear_4297_571" x1="128" y1="-1237.18" x2="128" y2="61.568" gradientUnits="userSpaceOnUse">
<stop stop-color="#028B47"/>
<stop offset="1" stop-color="#83C65C"/>
</linearGradient>
<linearGradient id="paint2_linear_4297_571" x1="128" y1="-141.105" x2="128" y2="944.737" gradientUnits="userSpaceOnUse">
<stop stop-color="#028B47"/>
<stop offset="1" stop-color="#83C65C"/>
</linearGradient>
<linearGradient id="paint3_linear_4297_571" x1="128" y1="-904" x2="128" y2="181.842" gradientUnits="userSpaceOnUse">
<stop stop-color="#028B47"/>
<stop offset="1" stop-color="#83C65C"/>
</linearGradient>
<linearGradient id="paint4_linear_4297_571" x1="128" y1="-226.202" x2="128" y2="732.265" gradientUnits="userSpaceOnUse">
<stop stop-color="#028B47"/>
<stop offset="1" stop-color="#83C65C"/>
</linearGradient>
<linearGradient id="paint5_linear_4297_571" x1="128" y1="-680.186" x2="128" y2="262.578" gradientUnits="userSpaceOnUse">
<stop stop-color="#028B47"/>
<stop offset="1" stop-color="#83C65C"/>
</linearGradient>
<linearGradient id="paint6_linear_4297_571" x1="128" y1="-308.804" x2="128" y2="622.618" gradientUnits="userSpaceOnUse">
<stop stop-color="#028B47"/>
<stop offset="1" stop-color="#83C65C"/>
</linearGradient>
<linearGradient id="paint7_linear_4297_571" x1="128" y1="-588.217" x2="128" y2="343.205" gradientUnits="userSpaceOnUse">
<stop stop-color="#028B47"/>
<stop offset="1" stop-color="#83C65C"/>
</linearGradient>
<linearGradient id="paint8_linear_4297_571" x1="128" y1="-404.291" x2="128" y2="563.194" gradientUnits="userSpaceOnUse">
<stop stop-color="#028B47"/>
<stop offset="1" stop-color="#83C65C"/>
</linearGradient>
<linearGradient id="paint9_linear_4297_571" x1="128" y1="-527.533" x2="128" y2="456.067" gradientUnits="userSpaceOnUse">
<stop stop-color="#028B47"/>
<stop offset="1" stop-color="#83C65C"/>
</linearGradient>
<linearGradient id="paint10_linear_4297_571" x1="127.975" y1="-575.016" x2="127.975" y2="505.297" gradientUnits="userSpaceOnUse">
<stop stop-color="#028B47"/>
<stop offset="1" stop-color="#83C65C"/>
</linearGradient>
<linearGradient id="paint11_linear_4297_571" x1="127.974" y1="-855.556" x2="127.974" y2="454.349" gradientUnits="userSpaceOnUse">
<stop stop-color="#028B47"/>
<stop offset="1" stop-color="#83C65C"/>
</linearGradient>
<linearGradient id="paint12_linear_4297_571" x1="128.025" y1="-464.046" x2="128.025" y2="616.267" gradientUnits="userSpaceOnUse">
<stop stop-color="#028B47"/>
<stop offset="1" stop-color="#83C65C"/>
</linearGradient>
<linearGradient id="paint13_linear_4297_571" x1="128.026" y1="-413.333" x2="128.026" y2="896.571" gradientUnits="userSpaceOnUse">
<stop stop-color="#028B47"/>
<stop offset="1" stop-color="#83C65C"/>
</linearGradient>
</defs>
</svg>
